<svg xmlns="http://www.w3.org/2000/svg" viewBox="0 0 160 280" fill="none">
  <!-- Main stem -->
  <path d="M 80 275 C 82 200 75 130 85 20" stroke="#6C7DFF" stroke-width="2.5" stroke-linecap="round" stroke-opacity="0.28"/>
  <!-- Left leaves, bottom to top -->
  <path d="M 78 230 C 45 215 22 185 38 165 C 58 180 72 205 78 230 Z" stroke="#6C7DFF" stroke-width="1.5" stroke-opacity="0.22" fill="#6C7DFF" fill-opacity="0.07"/>
  <path d="M 79 170 C 42 155 18 122 36 100 C 58 118 74 145 79 170 Z" stroke="#6C7DFF" stroke-width="1.5" stroke-opacity="0.22" fill="#6C7DFF" fill-opacity="0.07"/>
  <path d="M 81 110 C 48  95 28  62 46  42 C 65  60 78  85 81 110 Z" stroke="#6C7DFF" stroke-width="1.5" stroke-opacity="0.22" fill="#6C7DFF" fill-opacity="0.07"/>
  <!-- Right leaves, bottom to top -->
  <path d="M 82 210 C 120 195 142 165 125 145 C 105 160  88 186 82 210 Z" stroke="#6C7DFF" stroke-width="1.5" stroke-opacity="0.22" fill="#6C7DFF" fill-opacity="0.07"/>
  <path d="M 82 148 C 122 132 145 100 126  80 C 106  98  87 124 82 148 Z" stroke="#6C7DFF" stroke-width="1.5" stroke-opacity="0.22" fill="#6C7DFF" fill-opacity="0.07"/>
  <path d="M 83  88 C 118  72 138  42 120  24 C 102  40  86  64 83  88 Z" stroke="#6C7DFF" stroke-width="1.5" stroke-opacity="0.22" fill="#6C7DFF" fill-opacity="0.07"/>
</svg>
